<mxfile host="Electron" agent="Mozilla/5.0 (Windows NT 10.0; Win64; x64) AppleWebKit/537.36 (KHTML, like Gecko) draw.io/26.0.16 Chrome/132.0.6834.196 Electron/34.2.0 Safari/537.36" version="26.0.16">
  <diagram id="C5RBs43oDa-KdzZeNtuy" name="Page-1">
    <mxGraphModel dx="3058" dy="1299" grid="1" gridSize="10" guides="1" tooltips="1" connect="1" arrows="1" fold="1" page="1" pageScale="1" pageWidth="827" pageHeight="1169" math="0" shadow="0">
      <root>
        <mxCell id="WIyWlLk6GJQsqaUBKTNV-0" />
        <mxCell id="WIyWlLk6GJQsqaUBKTNV-1" parent="WIyWlLk6GJQsqaUBKTNV-0" />
        <mxCell id="IXPF_j5crCsPrbOIz-4i-1" value="MQ EventPulisher" style="rounded=1;whiteSpace=wrap;html=1;" vertex="1" parent="WIyWlLk6GJQsqaUBKTNV-1">
          <mxGeometry x="-300" y="510" width="120" height="60" as="geometry" />
        </mxCell>
        <mxCell id="IXPF_j5crCsPrbOIz-4i-5" style="edgeStyle=orthogonalEdgeStyle;rounded=0;orthogonalLoop=1;jettySize=auto;html=1;" edge="1" parent="WIyWlLk6GJQsqaUBKTNV-1" source="IXPF_j5crCsPrbOIz-4i-2" target="IXPF_j5crCsPrbOIz-4i-1">
          <mxGeometry relative="1" as="geometry" />
        </mxCell>
        <mxCell id="IXPF_j5crCsPrbOIz-4i-44" style="edgeStyle=orthogonalEdgeStyle;rounded=0;orthogonalLoop=1;jettySize=auto;html=1;entryX=0.5;entryY=0;entryDx=0;entryDy=0;" edge="1" parent="WIyWlLk6GJQsqaUBKTNV-1" source="IXPF_j5crCsPrbOIz-4i-2" target="IXPF_j5crCsPrbOIz-4i-20">
          <mxGeometry relative="1" as="geometry" />
        </mxCell>
        <mxCell id="IXPF_j5crCsPrbOIz-4i-2" value="publish(String topic, String eventMessageJSON)&lt;div&gt;&lt;br&gt;&lt;/div&gt;" style="whiteSpace=wrap;html=1;rounded=1;" vertex="1" parent="WIyWlLk6GJQsqaUBKTNV-1">
          <mxGeometry x="-135" y="515" width="270" height="50" as="geometry" />
        </mxCell>
        <mxCell id="IXPF_j5crCsPrbOIz-4i-7" value="" style="edgeStyle=orthogonalEdgeStyle;rounded=0;orthogonalLoop=1;jettySize=auto;html=1;" edge="1" parent="WIyWlLk6GJQsqaUBKTNV-1" source="IXPF_j5crCsPrbOIz-4i-4" target="IXPF_j5crCsPrbOIz-4i-6">
          <mxGeometry relative="1" as="geometry" />
        </mxCell>
        <mxCell id="IXPF_j5crCsPrbOIz-4i-9" value="" style="edgeStyle=orthogonalEdgeStyle;rounded=0;orthogonalLoop=1;jettySize=auto;html=1;" edge="1" parent="WIyWlLk6GJQsqaUBKTNV-1" source="IXPF_j5crCsPrbOIz-4i-4" target="IXPF_j5crCsPrbOIz-4i-8">
          <mxGeometry relative="1" as="geometry" />
        </mxCell>
        <mxCell id="IXPF_j5crCsPrbOIz-4i-4" value="saveAwardRecord(UserAwardRecordEntity)" style="rounded=1;whiteSpace=wrap;html=1;" vertex="1" parent="WIyWlLk6GJQsqaUBKTNV-1">
          <mxGeometry x="-150" y="140" width="300" height="60" as="geometry" />
        </mxCell>
        <mxCell id="IXPF_j5crCsPrbOIz-4i-6" value="AwradService" style="whiteSpace=wrap;html=1;rounded=1;" vertex="1" parent="WIyWlLk6GJQsqaUBKTNV-1">
          <mxGeometry x="-60" y="50" width="120" height="60" as="geometry" />
        </mxCell>
        <mxCell id="IXPF_j5crCsPrbOIz-4i-11" value="" style="edgeStyle=orthogonalEdgeStyle;rounded=0;orthogonalLoop=1;jettySize=auto;html=1;" edge="1" parent="WIyWlLk6GJQsqaUBKTNV-1" source="IXPF_j5crCsPrbOIz-4i-8" target="IXPF_j5crCsPrbOIz-4i-10">
          <mxGeometry relative="1" as="geometry" />
        </mxCell>
        <mxCell id="IXPF_j5crCsPrbOIz-4i-13" value="" style="edgeStyle=orthogonalEdgeStyle;rounded=0;orthogonalLoop=1;jettySize=auto;html=1;" edge="1" parent="WIyWlLk6GJQsqaUBKTNV-1" source="IXPF_j5crCsPrbOIz-4i-8" target="IXPF_j5crCsPrbOIz-4i-12">
          <mxGeometry relative="1" as="geometry" />
        </mxCell>
        <mxCell id="IXPF_j5crCsPrbOIz-4i-14" value="" style="edgeStyle=orthogonalEdgeStyle;rounded=0;orthogonalLoop=1;jettySize=auto;html=1;" edge="1" parent="WIyWlLk6GJQsqaUBKTNV-1" source="IXPF_j5crCsPrbOIz-4i-8" target="IXPF_j5crCsPrbOIz-4i-12">
          <mxGeometry relative="1" as="geometry" />
        </mxCell>
        <mxCell id="IXPF_j5crCsPrbOIz-4i-15" value="" style="edgeStyle=orthogonalEdgeStyle;rounded=0;orthogonalLoop=1;jettySize=auto;html=1;" edge="1" parent="WIyWlLk6GJQsqaUBKTNV-1" source="IXPF_j5crCsPrbOIz-4i-8" target="IXPF_j5crCsPrbOIz-4i-12">
          <mxGeometry relative="1" as="geometry" />
        </mxCell>
        <mxCell id="IXPF_j5crCsPrbOIz-4i-17" style="edgeStyle=orthogonalEdgeStyle;rounded=0;orthogonalLoop=1;jettySize=auto;html=1;entryX=0;entryY=0.5;entryDx=0;entryDy=0;" edge="1" parent="WIyWlLk6GJQsqaUBKTNV-1" source="IXPF_j5crCsPrbOIz-4i-8" target="IXPF_j5crCsPrbOIz-4i-16">
          <mxGeometry relative="1" as="geometry" />
        </mxCell>
        <mxCell id="IXPF_j5crCsPrbOIz-4i-8" value="构建聚合对象&lt;br&gt;UserAwardRecordAggregate" style="shape=parallelogram;perimeter=parallelogramPerimeter;whiteSpace=wrap;html=1;fixedSize=1;rounded=1;" vertex="1" parent="WIyWlLk6GJQsqaUBKTNV-1">
          <mxGeometry x="-100" y="240" width="200" height="60" as="geometry" />
        </mxCell>
        <mxCell id="IXPF_j5crCsPrbOIz-4i-19" value="" style="edgeStyle=orthogonalEdgeStyle;rounded=0;orthogonalLoop=1;jettySize=auto;html=1;" edge="1" parent="WIyWlLk6GJQsqaUBKTNV-1" source="IXPF_j5crCsPrbOIz-4i-10" target="IXPF_j5crCsPrbOIz-4i-18">
          <mxGeometry relative="1" as="geometry" />
        </mxCell>
        <mxCell id="IXPF_j5crCsPrbOIz-4i-24" style="edgeStyle=orthogonalEdgeStyle;rounded=0;orthogonalLoop=1;jettySize=auto;html=1;entryX=1;entryY=0.5;entryDx=0;entryDy=0;" edge="1" parent="WIyWlLk6GJQsqaUBKTNV-1" source="IXPF_j5crCsPrbOIz-4i-10" target="IXPF_j5crCsPrbOIz-4i-23">
          <mxGeometry relative="1" as="geometry" />
        </mxCell>
        <mxCell id="IXPF_j5crCsPrbOIz-4i-27" style="edgeStyle=orthogonalEdgeStyle;rounded=0;orthogonalLoop=1;jettySize=auto;html=1;entryX=1;entryY=0.5;entryDx=0;entryDy=0;" edge="1" parent="WIyWlLk6GJQsqaUBKTNV-1" source="IXPF_j5crCsPrbOIz-4i-10" target="IXPF_j5crCsPrbOIz-4i-26">
          <mxGeometry relative="1" as="geometry" />
        </mxCell>
        <mxCell id="IXPF_j5crCsPrbOIz-4i-10" value="将聚合对象入库" style="whiteSpace=wrap;html=1;rounded=1;" vertex="1" parent="WIyWlLk6GJQsqaUBKTNV-1">
          <mxGeometry x="-60" y="330" width="120" height="60" as="geometry" />
        </mxCell>
        <mxCell id="IXPF_j5crCsPrbOIz-4i-12" value="UserAwardRecordEntity" style="whiteSpace=wrap;html=1;rounded=1;" vertex="1" parent="WIyWlLk6GJQsqaUBKTNV-1">
          <mxGeometry x="160" y="200" width="150" height="60" as="geometry" />
        </mxCell>
        <mxCell id="IXPF_j5crCsPrbOIz-4i-16" value="EventMessage" style="rounded=1;whiteSpace=wrap;html=1;" vertex="1" parent="WIyWlLk6GJQsqaUBKTNV-1">
          <mxGeometry x="160" y="280" width="150" height="60" as="geometry" />
        </mxCell>
        <mxCell id="IXPF_j5crCsPrbOIz-4i-43" style="edgeStyle=orthogonalEdgeStyle;rounded=0;orthogonalLoop=1;jettySize=auto;html=1;" edge="1" parent="WIyWlLk6GJQsqaUBKTNV-1" source="IXPF_j5crCsPrbOIz-4i-18" target="IXPF_j5crCsPrbOIz-4i-2">
          <mxGeometry relative="1" as="geometry" />
        </mxCell>
        <mxCell id="IXPF_j5crCsPrbOIz-4i-18" value="将taskEntity中的Message对象转化为JSON中" style="whiteSpace=wrap;html=1;rounded=1;" vertex="1" parent="WIyWlLk6GJQsqaUBKTNV-1">
          <mxGeometry x="-60" y="420" width="120" height="60" as="geometry" />
        </mxCell>
        <mxCell id="IXPF_j5crCsPrbOIz-4i-30" value="" style="edgeStyle=orthogonalEdgeStyle;rounded=0;orthogonalLoop=1;jettySize=auto;html=1;" edge="1" parent="WIyWlLk6GJQsqaUBKTNV-1" source="IXPF_j5crCsPrbOIz-4i-20" target="IXPF_j5crCsPrbOIz-4i-29">
          <mxGeometry relative="1" as="geometry" />
        </mxCell>
        <mxCell id="IXPF_j5crCsPrbOIz-4i-33" value="" style="edgeStyle=orthogonalEdgeStyle;rounded=0;orthogonalLoop=1;jettySize=auto;html=1;" edge="1" parent="WIyWlLk6GJQsqaUBKTNV-1" source="IXPF_j5crCsPrbOIz-4i-20" target="IXPF_j5crCsPrbOIz-4i-32">
          <mxGeometry relative="1" as="geometry" />
        </mxCell>
        <mxCell id="IXPF_j5crCsPrbOIz-4i-20" value="发送MQ消息" style="rhombus;whiteSpace=wrap;html=1;rounded=1;" vertex="1" parent="WIyWlLk6GJQsqaUBKTNV-1">
          <mxGeometry x="-60" y="585" width="120" height="60" as="geometry" />
        </mxCell>
        <mxCell id="IXPF_j5crCsPrbOIz-4i-23" value="Task" style="rounded=1;whiteSpace=wrap;html=1;" vertex="1" parent="WIyWlLk6GJQsqaUBKTNV-1">
          <mxGeometry x="-260" y="290" width="120" height="60" as="geometry" />
        </mxCell>
        <mxCell id="IXPF_j5crCsPrbOIz-4i-26" value="UserAwardRecord" style="rounded=1;whiteSpace=wrap;html=1;" vertex="1" parent="WIyWlLk6GJQsqaUBKTNV-1">
          <mxGeometry x="-260" y="370" width="120" height="60" as="geometry" />
        </mxCell>
        <mxCell id="IXPF_j5crCsPrbOIz-4i-29" value="更新数据库将这条信息的状态从create转化为completed" style="rounded=1;whiteSpace=wrap;html=1;" vertex="1" parent="WIyWlLk6GJQsqaUBKTNV-1">
          <mxGeometry x="-60" y="680" width="120" height="60" as="geometry" />
        </mxCell>
        <mxCell id="IXPF_j5crCsPrbOIz-4i-31" value="成功" style="text;html=1;align=center;verticalAlign=middle;resizable=0;points=[];autosize=1;strokeColor=none;fillColor=none;" vertex="1" parent="WIyWlLk6GJQsqaUBKTNV-1">
          <mxGeometry y="658" width="50" height="30" as="geometry" />
        </mxCell>
        <mxCell id="IXPF_j5crCsPrbOIz-4i-32" value="更新数据库将这条信息的状态转化为fail" style="whiteSpace=wrap;html=1;rounded=1;" vertex="1" parent="WIyWlLk6GJQsqaUBKTNV-1">
          <mxGeometry x="140" y="585" width="120" height="60" as="geometry" />
        </mxCell>
        <mxCell id="IXPF_j5crCsPrbOIz-4i-35" value="失败" style="text;html=1;align=center;verticalAlign=middle;resizable=0;points=[];autosize=1;strokeColor=none;fillColor=none;" vertex="1" parent="WIyWlLk6GJQsqaUBKTNV-1">
          <mxGeometry x="70" y="585" width="50" height="30" as="geometry" />
        </mxCell>
        <mxCell id="IXPF_j5crCsPrbOIz-4i-48" value="" style="edgeStyle=orthogonalEdgeStyle;rounded=0;orthogonalLoop=1;jettySize=auto;html=1;" edge="1" parent="WIyWlLk6GJQsqaUBKTNV-1" source="IXPF_j5crCsPrbOIz-4i-46" target="IXPF_j5crCsPrbOIz-4i-47">
          <mxGeometry relative="1" as="geometry" />
        </mxCell>
        <mxCell id="IXPF_j5crCsPrbOIz-4i-46" value="SendMessageTaskJob" style="rounded=1;whiteSpace=wrap;html=1;" vertex="1" parent="WIyWlLk6GJQsqaUBKTNV-1">
          <mxGeometry x="390" y="380" width="150" height="40" as="geometry" />
        </mxCell>
        <mxCell id="IXPF_j5crCsPrbOIz-4i-50" value="" style="edgeStyle=orthogonalEdgeStyle;rounded=0;orthogonalLoop=1;jettySize=auto;html=1;" edge="1" parent="WIyWlLk6GJQsqaUBKTNV-1" source="IXPF_j5crCsPrbOIz-4i-47" target="IXPF_j5crCsPrbOIz-4i-49">
          <mxGeometry relative="1" as="geometry" />
        </mxCell>
        <mxCell id="IXPF_j5crCsPrbOIz-4i-47" value="定时扫描task表中状态是fail或者是创建了但是有7天没有发送的消息" style="whiteSpace=wrap;html=1;rounded=1;" vertex="1" parent="WIyWlLk6GJQsqaUBKTNV-1">
          <mxGeometry x="392.5" y="440" width="145" height="60" as="geometry" />
        </mxCell>
        <mxCell id="IXPF_j5crCsPrbOIz-4i-49" value="将消息发送出去" style="whiteSpace=wrap;html=1;rounded=1;" vertex="1" parent="WIyWlLk6GJQsqaUBKTNV-1">
          <mxGeometry x="405" y="520" width="120" height="30" as="geometry" />
        </mxCell>
      </root>
    </mxGraphModel>
  </diagram>
</mxfile>
